# Blender v2.73 (sub 0) OBJ File: 'plants.blend'
# www.blender.org
o grass_002
v 0.121117 0.336037 -0.476332
v -0.375231 -0.001753 -0.299536
v 0.468695 -0.001753 -0.125242
v 0.468695 -0.001753 -0.125242
v -0.375231 -0.001753 -0.299536
v 0.121117 0.336037 -0.476332
v 0.405936 0.326663 -0.164916
v 0.038095 -0.001753 -0.409829
v 0.315526 -0.001753 0.281337
v 0.315526 -0.001753 0.281337
v 0.038095 -0.001753 -0.409829
v 0.405936 0.326663 -0.164916
v -0.341525 0.376381 -0.344480
v -0.368663 -0.001753 0.110372
v 0.118368 -0.001753 -0.493679
v 0.118368 -0.001753 -0.493679
v -0.368663 -0.001753 0.110372
v -0.341525 0.376381 -0.344480
v -0.453037 0.330443 0.163772
v -0.037768 -0.001753 0.408492
v -0.270841 -0.001753 -0.294116
v -0.270841 -0.001753 -0.294116
v -0.037768 -0.001753 0.408492
v -0.453037 0.330443 0.163772
v 0.049631 0.385601 0.466983
v 0.465926 -0.001753 0.174200
v -0.396718 -0.001753 0.137941
v 0.465926 -0.001753 0.174200
v 0.049631 0.385601 0.466983
v 0.380932 0.330854 0.313992
v 0.420609 -0.001753 -0.141673
v -0.094750 -0.001753 0.445593
v -0.094750 -0.001753 0.445593
v 0.420609 -0.001753 -0.141673
v 0.380932 0.330854 0.313992
v -0.015523 0.496303 0.226727
v 0.643775 -0.001753 0.051684
v -0.617916 -0.001753 0.114389
v -0.617916 -0.001753 0.114389
v 0.643775 -0.001753 0.051684
v -0.015523 0.496303 0.226727
v 0.265396 0.490106 0.082864
v -0.223176 -0.001753 0.447381
v 0.152075 -0.001753 -0.527040
v 0.152075 -0.001753 -0.527040
v -0.223176 -0.001753 0.447381
v 0.265396 0.490106 0.082864
v 0.113936 0.497220 -0.234895
v 0.615798 -0.001753 0.016091
v -0.470717 -0.001753 -0.109689
v -0.470717 -0.001753 -0.109689
v 0.615798 -0.001753 0.016091
v 0.113936 0.497220 -0.234895
v -0.146356 0.377941 0.260365
v -0.429455 -0.001753 -0.241955
v 0.544225 -0.001753 0.395098
v 0.544225 -0.001753 0.395098
v -0.429455 -0.001753 -0.241955
v -0.146356 0.377941 0.260365
v -0.112044 0.424451 -0.379485
v 0.503757 -0.001753 -0.200107
v -0.559495 -0.001753 0.015455
v -0.559495 -0.001753 0.015455
v 0.503757 -0.001753 -0.200107
v -0.112044 0.424451 -0.379485
v -0.336071 0.435830 0.004658
v 0.057135 -0.001753 -0.567095
v -0.113646 -0.001753 0.550119
v -0.113646 -0.001753 0.550119
v 0.057135 -0.001753 -0.567095
v 0.397871 0.293903 0.043807
v 0.140579 -0.001753 -0.536037
v 0.012737 -0.001753 0.584132
v 0.012737 -0.001753 0.584132
v 0.140579 -0.001753 -0.536037
v 0.397871 0.293903 0.043807
vt 0.467863 1.053123
vt -0.155919 0.354745
vt 1.104524 0.354745
vn -0.778600 0.551200 -0.299900
vn 0.778600 -0.551200 0.299900
vn 0.448800 0.572800 -0.685900
vn -0.448800 -0.572800 0.685900
vn 0.813300 0.568400 0.124300
vn -0.813300 -0.568400 -0.124300
vn 0.672700 -0.735900 0.076800
vn -0.672700 0.735900 -0.076800
vn 0.047700 -0.274400 0.960400
vn -0.047700 0.274400 -0.960400
vn -0.107400 0.358500 0.927300
vn 0.107400 -0.358500 -0.927300
vn 0.162800 0.573200 0.803100
vn -0.162800 -0.573200 -0.803100
vn -0.686600 -0.690500 0.227800
vn 0.686600 0.690500 -0.227800
vn -0.032800 -0.624800 0.780100
vn 0.032800 0.624800 -0.780100
vn 0.738300 -0.605900 -0.296300
vn -0.738300 0.605900 0.296300
vn 0.157200 -0.629300 -0.761100
vn -0.157200 0.629300 0.761100
vn 0.582900 -0.631300 0.511600
vn -0.582900 0.631300 -0.511600
vn -0.638000 -0.573000 -0.514400
vn 0.638000 0.573000 0.514400
s 1
f 42/1/1 44/2/1 43/3/1
f 45/2/2 47/1/2 46/3/2
f 54/1/3 56/2/3 55/3/3
f 57/2/4 59/1/4 58/3/4
f 66/1/5 68/2/5 67/3/5
f 69/2/6 66/1/6 70/3/6
f 71/1/7 73/2/7 72/3/7
f 74/2/8 76/1/8 75/3/8
f 36/1/9 38/2/9 37/3/9
f 39/2/10 41/1/10 40/3/10
f 48/1/11 50/2/11 49/3/11
f 51/2/12 53/1/12 52/3/12
f 60/1/13 62/2/13 61/3/13
f 63/2/14 65/1/14 64/3/14
f 19/1/15 21/2/15 20/3/15
f 22/2/16 24/1/16 23/3/16
f 25/1/17 27/2/17 26/3/17
f 27/2/18 29/1/18 28/3/18
f 7/1/19 9/2/19 8/3/19
f 10/2/20 12/1/20 11/3/20
f 1/1/21 3/2/21 2/3/21
f 4/2/22 6/1/22 5/3/22
f 30/1/23 32/2/23 31/3/23
f 33/2/24 35/1/24 34/3/24
f 13/1/25 15/2/25 14/3/25
f 16/2/26 18/1/26 17/3/26
